# xmcd
#
# Track frame offsets:
#	182
#	9632
#	22827
#	38282
#	51585
#	63527
#	72832
#	84392
#	100847
#	114240
#
# Disc length: 1673
#
# Revision: 3
# Processed by: cddbd v1.5.1PL0 Copyright (c) Steve Scherf et al.
# Submitted via: audiograbber 1.80
# Normalized: r2:DSETVAR1
#
DISCID=7306870a
DTITLE=Various Artist - The 101 Greatest Country Hits Vol 2: Country Sunshine
DYEAR=1900
DGENRE=
TTITLE0=Dotti West - Country Sunshine
TTITLE1=Ray Stevens - Misty
TTITLE2=B.J. Thomas - (Hey Won't You Play) Another Somebody Done Somebody Wrong Song
TTITLE3=Tanya Tucker - Delta Dawn
TTITLE4=Gatlin Brothers - All The Gold In California
TTITLE5=Charley Pride - Kiss An Angel Good Morning
TTITLE6=The Kendalls - Heaven's Just A Sin Away
TTITLE7=T.G. Sheppard - I Loved 'Em Every One
TTITLE8=Micky Gilley - Don't All The Girls Get Prettier At Closing Time
TTITLE9=Conway Twitty and Loretta Lynn - Louisiana Woman, Mississippi Man
EXTD=
EXTT0=
EXTT1=
EXTT2=
EXTT3=
EXTT4=
EXTT5=
EXTT6=
EXTT7=
EXTT8=
EXTT9=
PLAYORDER=
